#N canvas 674 128 458 278 12;
#N canvas 305 152 997 850 guitar-tuner 0;
#X obj 94 475 adc~ 1;
#X obj 95 523 sigmund~ -hop 4096 pitch env;
#X obj 75 605 s \$0-gtrtuner-hz;
#N canvas 185 173 1169 809 gtrtuner-settings 0;
#X text 164 267 E 82.41;
#X obj 56 246 f \$0;
#X text 401 260 A 110;
#X text 69 380 D 146.83;
#X text 440 379 G 196;
#X text 67 522 B 246.94;
#X text 423 522 E 329.63;
#X obj 85 101 t f f;
#X obj 184 131 <= 90.651;
#X obj 65 132 >= 74.169;
#X obj 83 180 &&;
#X obj 66 215 sel 1;
#X obj 266 229 f \$0;
#X obj 295 91 t f f;
#X obj 293 163 &&;
#X obj 276 198 sel 1;
#X obj 275 127 >= 99;
#X obj 339 128 <= 121;
#X obj 404 210 f \$0;
#X obj 433 65 t f f;
#X obj 431 144 &&;
#X obj 414 179 sel 1;
#X obj 413 96 >= 132.147;
#X obj 502 101 <= 161.513;
#X obj 607 215 f \$0;
#X obj 636 70 t f f;
#X obj 634 149 &&;
#X obj 617 184 sel 1;
#X obj 616 101 >= 176.4;
#X obj 705 106 <= 215.6;
#X obj 785 205 f \$0;
#X obj 814 60 t f f;
#X obj 812 139 &&;
#X obj 795 174 sel 1;
#X obj 794 91 >= 222.246;
#X obj 883 96 <= 271.634;
#X obj 907 315 f \$0;
#X obj 936 170 t f f;
#X obj 934 249 &&;
#X obj 917 284 sel 1;
#X obj 916 201 >= 296.667;
#X obj 1005 206 <= 362.593;
#X obj 40 38 inlet;
#X text 678 700 range: hz * (0.9 - 1.1);
#X text 680 731 flat/sharp: hz * (0.99 - 1.01);
#X msg 51 299 \; \$1-gtrtuner-slider range 74.169 90.651 \; \$1-gtrtuner-flat
81.5859 \; \$1-gtrtuner-sharp 83.2341 \; \$1-gtrtuner-pitch 0 \;;
#X msg 397 292 \; \$1-gtrtuner-slider range 99 121 \; \$1-gtrtuner-flat
108.9 \; \$1-gtrtuner-sharp 111.1 \; \$1-gtrtuner-pitch 1 \;;
#X msg 65 412 \; \$1-gtrtuner-slider range 132.147 161.513 \; \$1-gtrtuner-flat
145.362 \; \$1-gtrtuner-sharp 148.298 \; \$1-gtrtuner-pitch 2 \;;
#X msg 436 411 \; \$1-gtrtuner-slider range 176.4 215.6 \; \$1-gtrtuner-flat
194.04 \; \$1-gtrtuner-sharp 197.96 \; \$1-gtrtuner-pitch 3 \;;
#X msg 63 554 \; \$1-gtrtuner-slider range 222.246 271.634 \; \$1-gtrtuner-flat
244.471 \; \$1-gtrtuner-sharp 249.409 \; \$1-gtrtuner-pitch 4 \;;
#X msg 419 554 \; \$1-gtrtuner-slider range 296.667 362.593 \; \$1-gtrtuner-flat
326.334 \; \$1-gtrtuner-sharp 332.926 \; \$1-gtrtuner-pitch 5 \;;
#X connect 1 0 45 0;
#X connect 7 0 9 0;
#X connect 7 1 8 0;
#X connect 8 0 10 1;
#X connect 9 0 10 0;
#X connect 10 0 11 0;
#X connect 11 0 1 0;
#X connect 12 0 46 0;
#X connect 13 0 16 0;
#X connect 13 1 17 0;
#X connect 14 0 15 0;
#X connect 15 0 12 0;
#X connect 16 0 14 0;
#X connect 17 0 14 1;
#X connect 18 0 47 0;
#X connect 19 0 22 0;
#X connect 19 1 23 0;
#X connect 20 0 21 0;
#X connect 21 0 18 0;
#X connect 22 0 20 0;
#X connect 23 0 20 1;
#X connect 24 0 48 0;
#X connect 25 0 28 0;
#X connect 25 1 29 0;
#X connect 26 0 27 0;
#X connect 27 0 24 0;
#X connect 28 0 26 0;
#X connect 29 0 26 1;
#X connect 30 0 49 0;
#X connect 31 0 34 0;
#X connect 31 1 35 0;
#X connect 32 0 33 0;
#X connect 33 0 30 0;
#X connect 34 0 32 0;
#X connect 35 0 32 1;
#X connect 36 0 50 0;
#X connect 37 0 40 0;
#X connect 37 1 41 0;
#X connect 38 0 39 0;
#X connect 39 0 36 0;
#X connect 40 0 38 0;
#X connect 41 0 38 1;
#X connect 42 0 7 0;
#X connect 42 0 13 0;
#X connect 42 0 19 0;
#X connect 42 0 25 0;
#X connect 42 0 31 0;
#X connect 42 0 37 0;
#X restore 187 658 pd gtrtuner-settings;
#X obj 95 548 mtof;
#X obj 100 100 cnv 15 300 200 empty empty guitar_tuner 20 12 0 30 -233017
-66577 0;
#X obj 147 188 hsl 192 30 74.169 90.651 0 0 empty \$0-gtrtuner-slider
empty -2 -8 0 10 -262144 -1 -1 0 1;
#X obj 211 221 nbx 5 16 -1e+37 1e+37 0 0 empty \$0-gtrtuner-hz empty
0 -8 0 15 -262144 -1 -1 0 256;
#X obj 142 155 bng 30 250 50 0 empty empty flat 0 -7 0 15 -262144 -1
-1;
#X obj 230 155 bng 30 250 50 0 empty empty empty 17 7 0 10 -262144
-1 -1;
#X obj 311 155 bng 30 250 50 0 empty empty sharp 0 -7 0 15 -262144
-1 -1;
#X obj 489 17 moses 81.41;
#X obj 495 52 moses 83.41;
#X obj 615 7 r \$0-gtrtuner-flat;
#X obj 608 56 r \$0-gtrtuner-sharp;
#X obj 157 243 hradio 30 1 0 6 empty \$0-gtrtuner-pitch pitch 0 -8
0 15 -262144 -1 -1 0;
#X text 162 276 E;
#X text 194 275 A;
#X text 225 277 D;
#X text 256 278 G;
#X text 286 277 B;
#X text 317 278 E;
#X connect 0 0 1 0;
#X connect 1 0 4 0;
#X connect 4 0 2 0;
#X connect 4 0 3 0;
#X connect 7 0 6 0;
#X connect 7 0 11 0;
#X connect 11 0 8 0;
#X connect 11 1 12 0;
#X connect 12 0 9 0;
#X connect 12 1 10 0;
#X connect 13 0 11 1;
#X connect 14 0 12 1;
#X coords 0 -1 1 1 300 200 2 100 100;
#X restore 123 30 pd guitar-tuner;
#X text 7 12 derek kwan;
#X text 8 38 gpl v 3;
#X text 9 69 2017;
#X coords 0 278 1 277 300 200 0;
